<svg width="179" height="52" viewBox="0 0 179 52" fill="none" xmlns="http://www.w3.org/2000/svg">
<rect x="0.5" y="0.5" width="178" height="51" rx="5.5" fill="#FEFEFE" stroke="#EB5757"/>
<path d="M39.9883 18.1797V34H36.7305V24.4375L32.6992 28.8438H31.7617L27.6836 24.4375V34H24.4258V18.1797H25.5273L32.2305 25.1641L38.8867 18.1797H39.9883ZM46.0352 22.1641L49.4102 29.7109L52.6914 22.1641H56.0898L47.4883 39.625H44.1133L47.6758 33.1328L42.5664 22.1641H46.0352ZM65.4883 18.1797L72.8008 34H68.9805L67.7852 31.0703H61.5742L60.3789 34H56.5586L63.8711 18.1797H65.4883ZM64.6914 23.5L62.7227 28.3047H66.6602L64.6914 23.5ZM82.3164 25.4922C81.8164 25.2109 81.293 25.0703 80.7461 25.0703C80.0586 25.0703 79.4883 25.2969 79.0352 25.75C78.582 26.1875 78.1836 26.7344 77.8398 27.3906V34H74.8633V22.1641H77.8398V24.3906C78.2461 23.6875 78.7227 23.1016 79.2695 22.6328C79.832 22.1641 80.4648 21.9297 81.168 21.9297C81.5898 21.9297 81.9727 22 82.3164 22.1406V25.4922ZM88.9023 18.7188V22.1641H92.1836V24.6484H88.9023V29.7578C88.9023 30.2891 89.0195 30.7109 89.2539 31.0234C89.5039 31.3203 89.8711 31.4688 90.3555 31.4688C90.7773 31.4688 91.1367 31.4219 91.4336 31.3281C91.7461 31.2344 92.0352 31.1016 92.3008 30.9297V33.2969C92.0039 33.5938 91.6289 33.8438 91.1758 34.0469C90.7383 34.25 90.1836 34.3516 89.5117 34.3516C88.4492 34.3516 87.582 34.0156 86.9102 33.3438C86.2539 32.6562 85.9258 31.7188 85.9258 30.5312V24.6484H83.793V23.125C84.543 22.8594 85.2305 22.3594 85.8555 21.625C86.4961 20.8906 87.0039 19.9219 87.3789 18.7188H88.9023ZM100.152 17.9922C101.059 17.9922 101.887 18.1172 102.637 18.3672C103.387 18.6172 104.02 18.9062 104.535 19.2344V22.4453C103.973 22.1016 103.371 21.7812 102.73 21.4844C102.09 21.1875 101.363 21.0391 100.551 21.0391C100.145 21.0391 99.7383 21.1016 99.332 21.2266C98.9414 21.3516 98.6133 21.5391 98.3477 21.7891C98.0977 22.0391 97.9727 22.3594 97.9727 22.75C97.9727 23.2656 98.1992 23.6562 98.6523 23.9219C99.1055 24.1875 99.6602 24.4531 100.316 24.7188L102.238 25.5156C103.332 25.9844 104.137 26.5547 104.652 27.2266C105.168 27.8984 105.426 28.6641 105.426 29.5234C105.426 30.4609 105.152 31.2891 104.605 32.0078C104.074 32.7109 103.355 33.2656 102.449 33.6719C101.559 34.0781 100.566 34.2812 99.4727 34.2812C98.5508 34.2812 97.668 34.125 96.8242 33.8125C95.9805 33.5 95.2461 33.1172 94.6211 32.6641V29.4531C95.3086 29.9531 96.0664 30.375 96.8945 30.7188C97.7227 31.0625 98.6055 31.2344 99.543 31.2344C100.199 31.2344 100.762 31.1094 101.23 30.8594C101.699 30.5938 101.934 30.2031 101.934 29.6875C101.934 29.2812 101.738 28.9531 101.348 28.7031C100.973 28.4375 100.559 28.2188 100.105 28.0469L97.6914 27.1094C96.4727 26.6406 95.6445 26.0312 95.207 25.2812C94.7852 24.5156 94.5742 23.6719 94.5742 22.75C94.5742 21.7969 94.832 20.9688 95.3477 20.2656C95.8789 19.5469 96.5664 18.9922 97.4102 18.6016C98.2539 18.1953 99.168 17.9922 100.152 17.9922ZM112.48 18.7188V22.1641H115.762V24.6484H112.48V29.7578C112.48 30.2891 112.598 30.7109 112.832 31.0234C113.082 31.3203 113.449 31.4688 113.934 31.4688C114.355 31.4688 114.715 31.4219 115.012 31.3281C115.324 31.2344 115.613 31.1016 115.879 30.9297V33.2969C115.582 33.5938 115.207 33.8438 114.754 34.0469C114.316 34.25 113.762 34.3516 113.09 34.3516C112.027 34.3516 111.16 34.0156 110.488 33.3438C109.832 32.6562 109.504 31.7188 109.504 30.5312V24.6484H107.371V23.125C108.121 22.8594 108.809 22.3594 109.434 21.625C110.074 20.8906 110.582 19.9219 110.957 18.7188H112.48ZM124.316 21.8594C125.473 21.8594 126.527 22.1406 127.48 22.7031C128.434 23.25 129.199 24 129.777 24.9531C130.371 25.8906 130.668 26.9453 130.668 28.1172C130.668 29.2891 130.371 30.3438 129.777 31.2812C129.199 32.2188 128.434 32.9688 127.48 33.5312C126.527 34.0781 125.473 34.3516 124.316 34.3516C123.176 34.3516 122.121 34.0781 121.152 33.5312C120.199 32.9688 119.434 32.2188 118.855 31.2812C118.277 30.3438 117.988 29.2891 117.988 28.1172C117.988 26.9453 118.277 25.8906 118.855 24.9531C119.434 24 120.199 23.25 121.152 22.7031C122.121 22.1406 123.176 21.8594 124.316 21.8594ZM124.316 24.7422C123.754 24.7422 123.23 24.875 122.746 25.1406C122.262 25.4062 121.871 25.7891 121.574 26.2891C121.293 26.7891 121.152 27.3984 121.152 28.1172C121.152 28.8359 121.293 29.4453 121.574 29.9453C121.871 30.4453 122.262 30.8281 122.746 31.0938C123.23 31.3438 123.754 31.4688 124.316 31.4688C124.879 31.4688 125.402 31.3438 125.887 31.0938C126.371 30.8281 126.762 30.4453 127.059 29.9453C127.355 29.4453 127.504 28.8359 127.504 28.1172C127.504 27.3984 127.355 26.7891 127.059 26.2891C126.762 25.7891 126.371 25.4062 125.887 25.1406C125.402 24.875 124.879 24.7422 124.316 24.7422ZM138.871 21.8594C139.746 21.8594 140.465 22 141.027 22.2812C141.59 22.5625 142.035 22.8359 142.363 23.1016V25.8438C141.957 25.5469 141.496 25.2969 140.98 25.0938C140.48 24.8906 139.863 24.7891 139.129 24.7891C138.535 24.7891 137.98 24.9375 137.465 25.2344C136.965 25.5312 136.566 25.9297 136.27 26.4297C135.973 26.9297 135.824 27.5 135.824 28.1406C135.824 29.1094 136.137 29.9062 136.762 30.5312C137.387 31.1562 138.176 31.4688 139.129 31.4688C139.863 31.4688 140.48 31.375 140.98 31.1875C141.496 30.9844 141.957 30.7344 142.363 30.4375V33.1562C142.035 33.4375 141.59 33.7109 141.027 33.9766C140.465 34.2266 139.746 34.3516 138.871 34.3516C137.668 34.3516 136.598 34.0703 135.66 33.5078C134.738 32.9297 134.004 32.1719 133.457 31.2344C132.926 30.2812 132.66 29.25 132.66 28.1406C132.66 27.3125 132.809 26.5234 133.105 25.7734C133.418 25.0234 133.855 24.3594 134.418 23.7812C134.98 23.1875 135.637 22.7188 136.387 22.375C137.152 22.0312 137.98 21.8594 138.871 21.8594ZM147.988 17.125V27.4375L152.816 22.1641H156.543L151.434 27.2969L156.801 34H153.051L149.465 29.2891L147.988 30.7656V34H145.012V17.125H147.988Z" fill="#333333"/>
</svg>
